<?xml version="1.0" standalone="no"?>
<!DOCTYPE svg PUBLIC "-//W3C//DTD SVG 20010904//EN"
 "http://www.w3.org/TR/2001/REC-SVG-20010904/DTD/svg10.dtd">
<svg version="1.0" xmlns="http://www.w3.org/2000/svg"
 width="2000.000000pt" height="2000.000000pt" viewBox="0 0 2000.000000 2000.000000"
 preserveAspectRatio="xMidYMid meet">
<metadata>
Created by potrace 1.16, written by Peter Selinger 2001-2019
</metadata>
<g transform="translate(0.000000,2000.000000) scale(0.100000,-0.100000)"
fill="yellow" stroke="none">
<path d="M9288 15164 c54 -69 101 -143 129 -199 63 -124 110 -313 129 -515 l8
-75 14 45 c23 67 21 296 -2 380 -42 155 -149 309 -257 369 l-43 25 22 -30z"/>
<path d="M10555 14273 c-68 -77 -188 -150 -317 -192 l-68 -23 14 -31 c8 -18
53 -122 101 -232 151 -347 371 -896 500 -1250 37 -99 68 -181 70 -183 2 -2 57
5 122 17 181 32 248 36 276 18 62 -41 208 -305 260 -472 76 -244 83 -449 22
-642 l-23 -73 44 -32 c48 -34 51 -40 31 -57 -10 -8 -24 -3 -56 20 -23 17 -43
30 -45 28 -2 -2 -11 -18 -20 -36 -27 -54 -112 -149 -178 -199 -35 -26 -65 -49
-67 -51 -3 -2 8 -30 25 -62 l29 -58 53 -5 c63 -6 103 -32 117 -76 5 -18 12
-32 15 -32 3 0 35 69 71 153 56 129 69 151 85 148 10 -2 47 -5 82 -5 61 -1 65
0 98 36 63 69 34 153 -61 177 -25 6 -45 13 -45 16 0 3 13 35 30 72 16 38 55
129 86 203 31 74 87 207 124 295 347 818 328 775 340 775 4 0 19 -13 33 -30
66 -78 60 -272 -19 -600 -83 -345 -201 -696 -469 -1392 l-38 -98 -208 0 -209
0 9 23 c5 12 21 48 35 80 14 32 26 60 26 62 0 3 -15 -4 -32 -15 -40 -24 -116
-26 -158 -5 -67 35 -81 111 -31 168 l30 33 -30 52 c-16 29 -32 52 -34 52 -3 0
-40 -17 -83 -39 -80 -40 -198 -82 -337 -121 -44 -12 -84 -25 -88 -30 -5 -4 3
-31 17 -59 22 -43 24 -52 12 -57 -22 -9 -34 2 -61 57 -14 27 -26 49 -28 49 -1
0 -18 -5 -37 -10 -42 -13 -399 -96 -452 -105 -32 -6 -37 -10 -33 -29 32 -130
27 -120 72 -129 59 -11 93 -54 93 -114 0 -140 -230 -170 -271 -34 -15 50 7
104 56 132 19 12 35 25 35 30 0 5 -8 36 -17 69 -12 46 -20 59 -32 55 -27 -8
-380 -63 -489 -76 -85 -10 -102 -15 -98 -28 3 -9 6 -41 8 -71 3 -49 1 -55 -17
-55 -17 0 -21 9 -27 64 -4 35 -9 65 -12 68 -2 2 -64 0 -137 -6 -73 -6 -197
-11 -276 -11 l-143 0 0 -68 0 -68 40 -18 c96 -42 105 -163 17 -216 -49 -30
-137 -27 -176 5 -40 34 -56 84 -41 130 13 38 58 82 96 91 24 6 25 9 22 73 l-3
66 -45 2 c-162 9 -346 36 -457 69 -19 5 -23 1 -29 -33 -9 -50 -10 -52 -34 -46
-13 4 -19 11 -16 22 21 76 20 78 -32 105 -103 52 -134 120 -196 429 -67 331
-97 537 -86 595 10 55 43 103 94 135 49 30 156 57 232 57 30 0 54 2 54 4 0 2
-13 36 -30 76 -41 99 -120 235 -185 319 -60 76 -56 74 -205 86 -180 15 -452
87 -595 158 -165 81 -288 194 -349 319 -51 102 -66 167 -66 285 0 154 35 296
120 479 l41 89 32 -58 c124 -222 361 -375 543 -350 56 7 56 19 0 27 -61 10
-188 73 -274 138 -116 87 -283 248 -280 268 4 22 -64 200 -75 197 -4 -1 -41
-29 -82 -62 -72 -58 -75 -61 -123 -175 -80 -187 -122 -350 -122 -475 l0 -64
-103 -129 c-461 -573 -761 -1257 -866 -1977 -25 -165 -41 -335 -41 -422 l0
-63 -497 0 c-516 0 -594 -5 -665 -41 -61 -31 -124 -102 -148 -165 -20 -55 -20
-61 -18 -1342 l3 -1287 27 -51 c32 -60 93 -118 157 -148 l46 -21 1513 -3 c833
-1 1512 -6 1510 -10 -67 -132 -72 -147 -76 -239 -8 -180 46 -282 264 -493 482
-465 1263 -874 1962 -1026 226 -49 366 -65 607 -71 258 -6 421 8 624 53 147
32 359 103 476 158 l90 42 -100 23 c-713 163 -1394 440 -1805 735 -78 55 -76
53 -52 79 12 12 43 89 71 175 47 144 140 354 176 397 15 18 16 19 11 1 -14
-42 -18 -222 -7 -264 24 -87 99 -139 187 -129 78 8 106 37 188 193 74 138 174
300 181 293 2 -2 -1 -27 -6 -54 -17 -86 -14 -235 5 -280 78 -183 306 -160 443
46 l23 36 58 -30 c50 -25 65 -28 123 -24 42 2 87 14 122 30 46 21 66 25 110
20 41 -4 62 -1 93 15 47 24 59 38 108 119 l36 61 55 -33 c30 -18 74 -36 98
-39 61 -9 139 10 196 48 34 23 53 30 67 25 10 -4 46 -8 79 -8 69 -1 143 29
211 84 l42 35 47 -16 c64 -22 173 -14 240 17 l50 24 1475 5 1475 5 46 21 c64
30 125 88 157 148 l27 51 3 1287 c2 1281 2 1287 -18 1342 -24 63 -87 134 -148
165 -74 38 -142 41 -923 41 l-756 0 -7 126 c-50 933 -448 1862 -1096 2559
-466 501 -1047 879 -1690 1100 -114 39 -464 137 -480 134 -3 0 -23 -21 -45
-46z m2495 -1882 c0 -41 -81 -253 -263 -691 -151 -362 -185 -455 -174 -467 32
-31 94 87 324 622 125 290 206 455 233 480 l23 20 -6 -50 c-7 -59 -60 -205
-192 -525 -228 -552 -249 -610 -227 -624 32 -20 105 107 192 335 170 447 267
666 308 703 22 19 22 19 22 -3 0 -32 -57 -203 -197 -591 -221 -614 -281 -751
-344 -782 -19 -10 -87 -43 -152 -75 -133 -65 -123 -53 -211 -245 l-45 -98 -75
0 -75 0 35 83 c108 249 106 241 96 294 -5 26 -21 99 -36 161 -26 110 -26 114
-10 175 70 272 537 1267 594 1267 16 0 12 -24 -14 -92 -29 -77 -160 -384 -216
-504 -69 -149 -190 -440 -196 -473 -6 -26 -3 -31 13 -31 24 0 42 33 121 210
63 143 76 171 197 429 84 181 218 436 242 464 17 18 33 22 33 8z m-3875 -2406
c136 -29 264 -116 346 -237 98 -143 98 -145 99 -791 1 -530 1 -555 -19 -617
-55 -174 -195 -323 -359 -382 -81 -29 -237 -36 -322 -14 -176 45 -335 194
-401 376 l-24 65 0 575 c0 538 1 579 19 630 47 138 119 234 230 308 138 92
275 120 431 87z m4353 -13 c160 -51 302 -193 364 -363 23 -63 23 -68 26 -614
l3 -550 -49 -17 c-27 -10 -69 -36 -94 -57 l-45 -40 -39 20 c-31 16 -52 20
-105 16 l-67 -4 24 51 24 51 0 488 c0 338 -4 502 -12 534 -15 60 -87 137 -143
152 -53 15 -74 14 -126 -4 -52 -19 -93 -55 -122 -110 -22 -40 -22 -46 -22
-560 0 -516 0 -520 22 -561 44 -82 133 -133 210 -121 20 4 31 2 28 -4 -4 -5
-34 -9 -69 -9 -98 0 -161 -52 -174 -145 l-7 -48 -28 36 c-42 55 -98 80 -182
81 l-69 1 -28 55 c-57 113 -58 126 -58 710 0 597 1 607 68 734 72 139 225 257
375 292 80 18 212 12 295 -14z m1237 6 c122 -26 276 -139 345 -254 68 -112 79
-167 80 -366 l0 -178 -175 0 -175 0 0 141 c0 158 -9 201 -53 255 -98 118 -280
90 -347 -53 -31 -67 -25 -180 13 -245 35 -61 69 -84 290 -205 252 -138 324
-195 394 -313 62 -106 78 -290 36 -425 -60 -190 -215 -342 -398 -390 -56 -14
-205 -21 -205 -10 0 3 9 24 21 47 29 57 35 135 15 197 -22 68 -9 97 46 104
102 14 188 114 188 219 0 99 -37 134 -287 275 -106 59 -220 128 -253 152 -61
45 -135 132 -172 204 -55 108 -75 318 -43 442 56 212 252 386 470 415 66 8
133 5 210 -12z m-9225 -30 c5 -13 84 -457 175 -988 91 -531 168 -973 171 -983
5 -16 -6 -17 -173 -15 l-178 3 -15 105 -15 105 -196 3 -195 2 -13 -96 c-7 -54
-15 -103 -18 -111 -4 -10 -42 -13 -179 -13 l-174 0 5 23 c2 12 84 460 180 996
97 535 178 978 181 982 3 5 102 9 220 9 213 0 214 0 224 -22z m1040 -520 c128
-299 236 -550 241 -558 5 -9 8 219 6 540 l-2 555 160 0 160 0 3 -1003 2 -1003
-137 3 -137 3 -238 505 c-131 278 -240 510 -242 515 -3 6 -2 -195 2 -445 3
-250 7 -482 7 -515 l0 -60 -170 0 -170 0 -3 990 c-1 545 0 996 3 1003 3 9 41
12 144 12 l139 0 232 -542z m1830 362 l0 -180 -190 0 -190 0 0 -825 0 -825
-175 0 -175 0 0 825 0 825 -195 0 -195 0 0 173 c0 96 3 177 7 180 3 4 255 7
560 7 l553 0 0 -180z m3038 -827 l2 -1003 -180 0 -180 0 0 833 c0 457 3 910 7
1005 l6 172 171 -2 171 -3 3 -1002z m1262 827 l0 -180 -192 0 -193 0 3 -742 3
-743 -23 -14 c-16 -10 -23 -11 -26 -2 -8 23 -55 72 -83 86 -15 8 -52 15 -82
15 -42 0 -63 -6 -100 -30 l-47 -30 0 730 0 730 -190 0 -190 0 0 180 0 180 560
0 560 0 0 -180z m-1832 -607 c-3 -774 -3 -778 -25 -843 -60 -176 -193 -319
-354 -382 -68 -26 -229 -36 -312 -18 -96 20 -194 75 -272 154 -120 121 -165
243 -165 449 l0 117 175 0 175 0 0 -93 c0 -114 19 -176 69 -226 36 -36 95 -61
145 -61 67 0 153 62 187 135 18 38 19 81 19 786 0 410 3 749 7 752 3 4 84 7
180 7 l174 0 -3 -777z m3537 -588 l0 -60 -65 -6 c-74 -7 -140 -35 -198 -85
-36 -30 -44 -33 -61 -22 -11 6 -22 21 -25 33 -8 29 -7 190 1 199 4 3 84 5 177
4 l171 -3 0 -60z m14 -220 c16 -8 31 -24 34 -36 9 -33 -9 -69 -34 -69 -17 0
-20 5 -17 25 14 69 -67 72 -134 5 -41 -41 -50 -83 -20 -95 9 -4 53 -11 96 -15
94 -9 116 -26 116 -94 0 -49 -36 -112 -100 -176 -44 -44 -129 -90 -167 -90
-27 0 -63 33 -63 58 0 53 96 182 135 182 22 0 19 -8 -25 -57 -46 -52 -72 -120
-51 -133 41 -25 154 58 197 146 22 46 25 59 16 80 -15 31 -49 44 -113 44 -94
0 -134 44 -105 115 19 43 59 82 111 106 49 23 87 24 124 4z m-416 -76 c43 -20
67 -77 67 -161 0 -92 -18 -154 -64 -224 -83 -125 -211 -150 -262 -52 -27 53
-16 187 24 268 36 76 91 136 147 161 47 22 56 23 88 8z m-373 -88 c15 -29 13
-58 -15 -197 -14 -69 -25 -143 -25 -165 0 -37 1 -38 29 -33 39 8 51 -14 21
-38 -27 -22 -63 -23 -84 -2 -23 22 -20 95 9 230 41 187 31 204 -57 104 -79
-90 -159 -224 -219 -366 -29 -69 -59 -128 -66 -131 -28 -11 -34 12 -18 72 21
80 19 84 -13 39 -62 -85 -168 -152 -219 -140 -16 5 -30 19 -39 42 l-15 36 -37
-42 c-67 -79 -164 -122 -208 -92 -18 11 -34 49 -34 77 0 25 -3 23 -44 -28 -73
-89 -180 -150 -267 -151 -55 -1 -93 22 -124 76 l-20 35 -39 -54 c-43 -59 -126
-127 -175 -144 -64 -22 -101 9 -101 84 0 32 0 32 -61 -36 -70 -78 -131 -117
-181 -117 -43 0 -101 47 -148 120 -18 27 -34 50 -36 50 -7 0 -147 -194 -176
-243 -26 -45 -50 -59 -63 -37 -9 15 27 77 124 210 l90 124 -32 59 c-18 32 -47
76 -64 97 -36 42 -40 55 -19 63 23 9 52 -20 102 -99 l48 -76 27 33 c16 19 54
73 86 122 32 48 63 87 70 87 41 0 16 -58 -85 -193 l-73 -98 26 -45 c31 -53 80
-111 106 -125 30 -15 78 12 140 78 89 97 144 182 168 264 35 114 73 171 102
153 22 -13 1 -95 -60 -229 -35 -77 -53 -187 -32 -200 22 -13 58 4 109 55 84
82 138 167 152 235 29 147 142 311 230 335 74 20 130 -29 133 -116 2 -43 -1
-49 -19 -52 -23 -3 -34 19 -34 70 0 37 -26 61 -59 53 -153 -38 -275 -396 -163
-481 35 -27 113 -9 196 45 57 37 156 167 210 276 98 194 251 300 315 219 25
-32 28 -92 5 -101 -20 -7 -34 13 -34 48 0 37 -24 43 -75 20 -106 -47 -228
-287 -201 -395 13 -51 78 -26 150 56 26 29 67 92 91 140 48 92 57 103 80 94
11 -4 8 -21 -15 -88 -30 -84 -35 -114 -24 -142 17 -44 104 6 176 101 96 126
107 149 130 264 21 106 32 125 56 96 10 -12 -10 -164 -25 -191 -19 -34 12 10
57 79 121 186 226 269 260 206z m-6203 -134 c23 -125 90 -252 196 -372 42 -47
46 -49 63 -34 48 42 109 63 198 67 84 4 206 -10 234 -27 8 -5 -19 -18 -70 -35
-188 -63 -343 -152 -450 -259 l-61 -62 6 60 c8 64 53 169 86 199 20 18 19 19
-37 60 -79 58 -182 173 -220 243 -69 131 -61 240 17 231 24 -3 27 -9 38 -71z
m3183 -326 c18 -34 11 -96 -36 -313 -49 -230 -76 -401 -67 -424 3 -8 11 -14
17 -14 18 0 69 57 110 123 39 60 46 66 65 43 24 -28 -93 -185 -157 -213 -30
-12 -37 -12 -57 1 -50 33 -46 107 26 471 27 138 49 259 49 268 0 28 -30 7
-147 -106 -161 -155 -281 -325 -403 -567 -27 -53 -55 -100 -63 -103 -45 -17
-48 71 -12 345 30 227 33 366 9 375 -26 10 -89 -62 -196 -222 -128 -191 -233
-403 -293 -590 -39 -120 -50 -145 -66 -145 -11 0 -22 7 -26 16 -3 9 17 100 45
202 96 356 124 505 121 664 -1 110 6 136 34 125 20 -7 31 -107 22 -200 -7 -78
-33 -259 -41 -292 -3 -11 21 25 53 80 120 204 222 339 292 385 53 36 73 37
100 9 40 -43 38 -151 -8 -486 -10 -73 -17 -133 -15 -133 1 0 23 37 48 83 134
247 317 473 480 594 63 47 99 54 116 24z m511 -110 c20 -16 24 -28 23 -68 -1
-97 -104 -201 -226 -227 -32 -7 -43 -46 -33 -113 9 -62 44 -97 88 -88 89 20
183 99 277 233 26 37 51 62 62 62 29 0 22 -23 -31 -102 -97 -144 -223 -238
-321 -238 -77 0 -114 42 -126 142 -16 135 92 350 200 399 52 23 58 23 87 0z
m-2417 -371 c100 -116 134 -164 217 -304 72 -122 141 -203 232 -272 34 -25 73
-62 87 -82 31 -45 100 -82 153 -82 22 0 51 -8 65 -19 15 -10 110 -67 212 -126
332 -194 709 -454 710 -489 0 -17 -6 -18 -62 -12 -269 30 -567 149 -790 315
-138 103 -235 195 -373 356 -122 143 -189 205 -340 316 -125 92 -188 155 -258
261 -70 107 -100 167 -137 277 -32 95 -38 146 -17 154 15 6 188 -162 301 -293z
m656 53 c0 -24 -31 -157 -82 -346 -32 -123 -44 -155 -53 -145 -7 7 -96 124
-198 261 l-186 247 259 0 c241 0 260 -1 260 -17z"/>
<path d="M8998 9638 c-53 -14 -113 -70 -135 -126 -17 -43 -18 -87 -18 -552 l0
-506 26 -49 c49 -95 149 -143 242 -115 54 16 128 91 145 146 9 30 12 171 12
526 0 556 0 558 -74 626 -61 57 -119 71 -198 50z"/>
<path d="M5306 9325 c-4 -27 -34 -218 -67 -422 -32 -205 -59 -382 -59 -393 0
-19 7 -20 130 -20 120 0 130 1 130 18 0 20 -118 839 -124 857 -1 6 -6 -12 -10
-40z"/>
<path d="M13945 8250 c-100 -42 -197 -306 -138 -379 16 -20 25 -23 54 -17 77
14 150 112 168 227 12 70 -1 138 -29 161 -25 20 -27 20 -55 8z"/>
<path d="M11070 7603 c-30 -11 -82 -69 -116 -129 -43 -78 -44 -86 -1 -72 76
25 160 119 155 172 -3 31 -13 38 -38 29z"/>
<path d="M9387 13272 c-468 -503 -938 -843 -1304 -943 -84 -22 -101 -37 -87
-73 16 -43 373 9 622 90 112 37 321 133 407 187 190 118 369 300 475 482 31
52 22 44 -36 -35 -151 -206 -418 -399 -711 -514 -81 -31 -353 -110 -353 -102
0 2 47 31 104 65 274 162 555 412 832 741 90 107 218 270 211 270 -2 0 -74
-76 -160 -168z"/>
<path d="M10650 12255 c-688 -326 -1506 -520 -2214 -526 -115 -1 -126 -2 -86
-12 27 -6 182 -11 380 -11 366 -1 446 6 744 66 438 87 890 267 1259 501 42 27
77 51 77 53 0 5 20 14 -160 -71z"/>
<path d="M11132 12043 c-11 -54 -44 -219 -73 -368 -28 -148 -55 -274 -59 -278
-4 -5 -46 9 -91 31 -360 171 -493 232 -505 232 -10 0 -35 -42 -66 -107 -53
-115 -63 -136 -182 -393 -43 -91 -81 -169 -85 -173 -5 -5 -145 94 -312 219
-167 125 -313 228 -323 228 -14 1 -69 -72 -207 -274 -103 -151 -191 -276 -196
-277 -5 -2 -148 116 -318 262 -171 145 -316 264 -324 262 -12 -2 -246 -546
-238 -554 2 -1 57 112 123 252 65 140 121 255 124 255 3 0 144 -126 314 -280
170 -154 317 -280 327 -280 11 0 82 92 210 275 106 152 195 274 199 273 4 -2
136 -102 294 -223 336 -257 330 -253 353 -239 13 8 289 593 326 688 2 6 122
-44 268 -111 302 -138 336 -151 347 -138 5 6 37 177 72 382 54 314 66 371 78
361 7 -7 75 -85 149 -175 75 -90 138 -163 141 -163 2 0 0 6 -5 13 -6 6 -45 59
-88 117 -112 150 -217 280 -225 280 -4 0 -17 -44 -28 -97z"/>
</g>
</svg>
